<?xml version="1.0" standalone="no"?>
<!DOCTYPE svg PUBLIC "-//W3C//DTD SVG 20010904//EN"
 "http://www.w3.org/TR/2001/REC-SVG-20010904/DTD/svg10.dtd">
<svg version="1.0" xmlns="http://www.w3.org/2000/svg"
 width="700.000000pt" height="700.000000pt" viewBox="0 0 700.000000 700.000000"
 preserveAspectRatio="xMidYMid meet">
<metadata>
Created by potrace 1.14, written by Peter Selinger 2001-2017
</metadata>
<g transform="translate(0.000000,700.000000) scale(0.100000,-0.100000)"
fill="#000000" stroke="none">
<path d="M819 6629 c-293 -69 -522 -317 -565 -609 -7 -51 -7 -182 1 -220 47
-240 159 -406 353 -524 85 -51 131 -66 408 -131 131 -31 302 -72 379 -92 77
-19 149 -37 159 -39 10 -2 33 -8 50 -13 17 -6 103 -29 191 -51 88 -23 239 -64
335 -92 96 -27 207 -59 245 -70 39 -11 122 -35 185 -55 63 -19 142 -43 175
-53 344 -103 1032 -345 1210 -425 35 -16 88 -38 95 -40 3 0 27 -11 54 -23 27
-12 50 -22 52 -22 6 0 111 -48 249 -113 249 -118 455 -237 611 -352 l95 -70
-49 -46 c-57 -52 -167 -136 -267 -203 -38 -25 -75 -50 -80 -54 -6 -5 -62 -39
-125 -77 -355 -212 -836 -446 -1395 -680 -174 -73 -653 -262 -800 -316 -27
-10 -68 -25 -90 -33 -226 -84 -1038 -365 -1100 -380 -25 -6 -344 -109 -380
-122 -116 -44 -260 -159 -332 -264 -164 -242 -176 -544 -30 -795 92 -158 242
-276 427 -335 65 -21 94 -24 210 -24 117 0 147 4 225 28 115 34 495 155 515
163 8 4 17 7 20 8 28 7 599 204 710 245 47 17 119 42 160 56 41 15 89 32 105
39 17 7 122 48 235 90 281 106 631 245 717 285 24 11 45 20 48 20 2 0 28 11
57 24 29 13 82 36 118 51 36 15 92 40 125 55 33 15 94 42 135 60 82 35 742
362 830 411 768 429 1227 829 1424 1242 68 144 73 157 100 258 50 193 52 397
6 569 -7 25 -13 52 -15 60 -16 77 -107 269 -181 382 -26 40 -50 75 -54 78 -3
3 -23 28 -44 55 -62 80 -242 254 -355 344 -493 392 -1260 755 -2406 1136 -351
117 -764 243 -1100 336 -455 125 -1139 296 -1339 334 -94 18 -216 16 -307 -6z"/>
</g>
</svg>
